<svg viewBox="0 0 700 420" xmlns="http://www.w3.org/2000/svg"
     style="font-family:-apple-system,system-ui,sans-serif;background:white;">
  <text x="350" y="20" text-anchor="middle" font-size="13" font-weight="700" fill="#222">
    Brainstem and Cerebellum: Most Myelin, Least Neuroprotective Reserve
  </text>
  <text x="350" y="38" text-anchor="middle" font-size="10" fill="#666">
    Allen Mouse Brain Atlas ISH · Plp1 (myelin) vs Bdnf (neuroprotection) · sorted by Plp1/Bdnf ratio
  </text>
  <text x="350" y="55" text-anchor="middle" font-size="10" fill="#444">
    Cerebellum (41×) and brainstem (29×) have the highest myelin-to-BDNF imbalance — least capacity for neuroprotective repair
  </text>
  <line x1="72" y1="85" x2="72" y2="365" stroke="#ccc" stroke-width="1.2"/><line x1="72" y1="365" x2="545" y2="365" stroke="#ccc" stroke-width="1.2"/><text x="308" y="401" text-anchor="middle" font-size="10" fill="#555">Expression density (Allen Mouse Brain Atlas ISH)</text><text x="559" y="75" font-size="9" fill="#555" font-weight="700">Plp1 / Bdnf</text><text x="559" y="85" font-size="9" fill="#555">ratio →</text><line x1="201.5" y1="85" x2="201.5" y2="365" stroke="#eee" stroke-width="1"/><text x="201.5" y="383" text-anchor="middle" font-size="9" fill="#bbb">0.04</text><line x1="331.0" y1="85" x2="331.0" y2="365" stroke="#eee" stroke-width="1"/><text x="331.0" y="383" text-anchor="middle" font-size="9" fill="#bbb">0.08</text><line x1="460.5" y1="85" x2="460.5" y2="365" stroke="#eee" stroke-width="1"/><text x="460.5" y="383" text-anchor="middle" font-size="9" fill="#bbb">0.12</text><rect x="72" y="85.0" width="473" height="40.0" fill="#fff5f5" rx="0"/><text x="64" y="109.0" text-anchor="end" font-size="10.5" fill="#c0392b" font-weight="700">Cereb</text><rect x="72" y="92.2" width="232.3" height="9.2" fill="#c0392b" opacity="0.85" rx="2"/><text x="308.3" y="100.3" font-size="8" fill="#c0392b">0.072</text><rect x="72" y="108.6" width="5.6" height="9.2" fill="#c0392b" opacity="0.35" rx="2"/><text x="81.6" y="116.7" font-size="8" fill="#c0392b">0.0017</text><text x="559" y="109.0" font-size="10" fill="#c0392b" font-weight="700">41×</text><rect x="72" y="125.0" width="473" height="40.0" fill="#fff5f5" rx="0"/><text x="64" y="149.0" text-anchor="end" font-size="10.5" fill="#c0392b" font-weight="700">BS</text><rect x="72" y="132.2" width="381.9" height="9.2" fill="#c0392b" opacity="0.85" rx="2"/><text x="457.9" y="140.3" font-size="8" fill="#c0392b">0.118</text><rect x="72" y="148.6" width="13.1" height="9.2" fill="#c0392b" opacity="0.35" rx="2"/><text x="89.1" y="156.7" font-size="8" fill="#c0392b">0.0040</text><text x="559" y="149.0" font-size="10" fill="#c0392b" font-weight="700">29×</text><rect x="72" y="165.0" width="473" height="40.0" fill="#fff5f5" rx="0"/><text x="64" y="189.0" text-anchor="end" font-size="10.5" fill="#e67e22" font-weight="700">Thal</text><rect x="72" y="172.2" width="347.3" height="9.2" fill="#e67e22" opacity="0.85" rx="2"/><text x="423.3" y="180.3" font-size="8" fill="#e67e22">0.107</text><rect x="72" y="188.6" width="21.7" height="9.2" fill="#e67e22" opacity="0.35" rx="2"/><text x="97.7" y="196.7" font-size="8" fill="#e67e22">0.0067</text><text x="559" y="189.0" font-size="10" fill="#e67e22" font-weight="700">16×</text><text x="64" y="229.0" text-anchor="end" font-size="10.5" fill="#7f8c8d" font-weight="400">Ctx</text><rect x="72" y="212.2" width="307.1" height="9.2" fill="#7f8c8d" opacity="0.85" rx="2"/><text x="383.1" y="220.3" font-size="8" fill="#7f8c8d">0.095</text><rect x="72" y="228.6" width="41.1" height="9.2" fill="#7f8c8d" opacity="0.35" rx="2"/><text x="117.1" y="236.7" font-size="8" fill="#7f8c8d">0.0127</text><text x="559" y="229.0" font-size="10" fill="#7f8c8d" font-weight="400">7×</text><text x="64" y="269.0" text-anchor="end" font-size="10.5" fill="#1a5c8a" font-weight="400">CP</text><rect x="72" y="252.2" width="430.0" height="9.2" fill="#1a5c8a" opacity="0.85" rx="2"/><text x="506.0" y="260.3" font-size="8" fill="#1a5c8a">0.133</text><rect x="72" y="268.6" width="78.0" height="9.2" fill="#1a5c8a" opacity="0.35" rx="2"/><text x="154.0" y="276.7" font-size="8" fill="#1a5c8a">0.0241</text><text x="559" y="269.0" font-size="10" fill="#1a5c8a" font-weight="400">6×</text><text x="64" y="309.0" text-anchor="end" font-size="10.5" fill="#7f8c8d" font-weight="400">Hipp</text><rect x="72" y="292.2" width="196.5" height="9.2" fill="#7f8c8d" opacity="0.85" rx="2"/><text x="272.5" y="300.3" font-size="8" fill="#7f8c8d">0.061</text><rect x="72" y="308.6" width="40.7" height="9.2" fill="#7f8c8d" opacity="0.35" rx="2"/><text x="116.7" y="316.7" font-size="8" fill="#7f8c8d">0.0126</text><text x="559" y="309.0" font-size="10" fill="#7f8c8d" font-weight="400">5×</text><text x="64" y="349.0" text-anchor="end" font-size="10.5" fill="#1a5c8a" font-weight="400">CC</text><rect x="72" y="332.2" width="175.9" height="9.2" fill="#1a5c8a" opacity="0.85" rx="2"/><text x="251.9" y="340.3" font-size="8" fill="#1a5c8a">0.054</text><rect x="72" y="348.6" width="102.6" height="9.2" fill="#1a5c8a" opacity="0.35" rx="2"/><text x="178.6" y="356.7" font-size="8" fill="#1a5c8a">0.0317</text><text x="559" y="349.0" font-size="10" fill="#1a5c8a" font-weight="400">2×</text><rect x="72" y="411" width="14" height="10" fill="#555" opacity="0.85" rx="1"/><text x="90" y="420" font-size="9" fill="#555">Plp1 (myelin gene)</text><rect x="207" y="411" width="14" height="10" fill="#555" opacity="0.35" rx="1"/><text x="225" y="420" font-size="9" fill="#555">Bdnf (neuroprotection)</text><rect x="402" y="410" width="12" height="12" fill="#fff5f5" stroke="#c0392b" stroke-width="1" rx="1"/><text x="418" y="420" font-size="9" fill="#c0392b">High-disability MS region</text>
</svg>